<?xml version="1.0" encoding="utf-8"?>
<!-- Generator: Adobe Illustrator 22.0.0, SVG Export Plug-In . SVG Version: 6.00 Build 0)  -->
<svg version="1.1" id="Layer_1" xmlns="http://www.w3.org/2000/svg" xmlns:xlink="http://www.w3.org/1999/xlink" x="0px" y="0px"
	 viewBox="0 0 71.9 88" style="enable-background:new 0 0 71.9 88;" xml:space="preserve">
<path d="M61.8,7.2c0-0.1,0-0.3-0.1-0.4c-0.1-0.2-0.3-0.4-0.5-0.5c-0.1-0.1-0.3-0.1-0.4-0.1H36H11.1c-0.1,0-0.3,0-0.4,0.1
	c-0.2,0.1-0.4,0.3-0.5,0.5c0,0.1-0.1,0.2-0.1,0.4l0,0V32v16.3v32.6c0,0.6,0.4,1,1,1h49.7c0.6,0,1-0.4,1-1V48.3V32L61.8,7.2L61.8,7.2
	z M59.8,47.3h-2.4V36.9l2.4-2.4V47.3z M41.4,47.3v-9.9h14v9.9C55.4,47.3,41.4,47.3,41.4,47.3z M37,47.3V34.4l2.4,2.4v10.4L37,47.3
	L37,47.3z M16.5,47.3v-9.9h14v9.9C30.5,47.3,16.5,47.3,16.5,47.3z M12.1,47.3V34.4l2.4,2.4v10.4C14.5,47.3,12.1,47.3,12.1,47.3z
	 M56,35.4H40.8L38.4,33h20L56,35.4z M31.1,35.4H15.9L13.5,33h20L31.1,35.4z M39.4,12v15.2L37,29.6v-20L39.4,12z M55.4,26.6h-14v-14
	h14V26.6z M32.5,27.2V12L35,9.6v20L32.5,27.2z M30.5,26.6h-14v-14h14V26.6z M15.9,28.6h15.2l2.4,2.4h-20L15.9,28.6z M38.4,31
	l2.4-2.4H56l2.4,2.4H38.4z M56,10.6H40.8l-2.4-2.4h20L56,10.6z M31.1,10.6H15.9l-2.4-2.4h20L31.1,10.6z M14.5,12v15.2l-2.4,2.4v-20
	L14.5,12z M32.5,36.9l2.4-2.4v12.8h-2.4V36.9z M57.4,27.2V12l2.4-2.4v20L57.4,27.2z M59.8,79.9H12.1V49.3h47.7L59.8,79.9L59.8,79.9z
	"/>
</svg>
