<?xml version="1.0" encoding="utf-8"?>
<!-- Generator: Adobe Illustrator 22.0.0, SVG Export Plug-In . SVG Version: 6.00 Build 0)  -->
<svg version="1.1" id="Layer_1" xmlns="http://www.w3.org/2000/svg" xmlns:xlink="http://www.w3.org/1999/xlink" x="0px" y="0px"
	 viewBox="0 0 24 18" style="enable-background:new 0 0 24 18;" xml:space="preserve">
<g>
	<path d="M19.7,8.7H4.5C4.4,8.7,4.2,8.9,4.2,9c0,4.4,3.5,7.9,7.9,7.9c2.9,0,5.5-1.6,6.9-4.1c0.2,0.1,0.4,0.1,0.6,0.1
		c1.2,0,2.1-1,2.1-2.1C21.8,9.7,20.8,8.7,19.7,8.7z M21.1,10.8c0,0.8-0.7,1.5-1.5,1.5c-0.1,0-0.2,0-0.3,0c0.4-0.9,0.6-1.9,0.7-2.8
		C20.6,9.6,21.1,10.2,21.1,10.8z M12.1,16.3c-3.8,0-7-3.1-7.2-6.9h14.4c0,1-0.3,2-0.8,2.9C17.3,14.7,14.9,16.3,12.1,16.3z"/>
	<path d="M8.5,7.2c0.1,0.1,0.1,0.1,0.2,0.1c0.1,0,0.2,0,0.2-0.1C9,7.2,9,7.1,9,7s0-0.2-0.1-0.2c-0.6-0.6-0.6-1.6,0-2.3
		c0.4-0.4,0.7-1,0.7-1.6S9.4,1.7,8.9,1.3c0-0.1-0.1-0.1-0.2-0.1l0,0c-0.1,0-0.2,0-0.2,0.1C8.4,1.4,8.4,1.4,8.4,1.5s0,0.2,0.1,0.2
		C8.8,2,9,2.4,9,2.8S8.8,3.6,8.5,3.9C7.6,4.9,7.6,6.4,8.5,7.2z"/>
	<path d="M11.9,7.2C12,7.3,12,7.3,12.1,7.3c0.1,0,0.2,0,0.2-0.1c0.1-0.1,0.1-0.1,0.1-0.2s0-0.2-0.1-0.2c-0.6-0.6-0.6-1.6,0-2.3
		c0.4-0.4,0.7-1,0.7-1.6s-0.2-1.2-0.7-1.6c-0.1-0.1-0.3-0.1-0.5,0c-0.1,0.1-0.1,0.3,0,0.5c0.3,0.3,0.5,0.7,0.5,1.1S12.1,3.7,11.8,4
		C11,4.9,11,6.4,11.9,7.2z"/>
	<path d="M15.3,7.2c0.1,0.1,0.1,0.1,0.2,0.1s0.2,0,0.2-0.1c0.1-0.1,0.1-0.1,0.1-0.2s0-0.2-0.1-0.2c-0.6-0.6-0.6-1.6,0-2.3
		c0.4-0.4,0.7-1,0.7-1.6s-0.2-1.2-0.7-1.6c-0.1-0.1-0.1-0.1-0.2-0.1s-0.2,0-0.2,0.1c-0.1,0.1-0.1,0.1-0.1,0.2s0,0.2,0.1,0.2
		c0.3,0.3,0.5,0.7,0.5,1.1S15.6,3.7,15.3,4C14.4,4.9,14.4,6.4,15.3,7.2z"/>
</g>
</svg>
