<?xml version="1.0" encoding="utf-8"?>
<!-- Generator: Adobe Illustrator 22.0.0, SVG Export Plug-In . SVG Version: 6.00 Build 0)  -->
<svg version="1.1"
	 id="Layer_1" xmlns:cc="http://creativecommons.org/ns#" xmlns:dc="http://purl.org/dc/elements/1.1/" xmlns:inkscape="http://www.inkscape.org/namespaces/inkscape" xmlns:rdf="http://www.w3.org/1999/02/22-rdf-syntax-ns#" xmlns:sodipodi="http://sodipodi.sourceforge.net/DTD/sodipodi-0.dtd" xmlns:svg="http://www.w3.org/2000/svg"
	 xmlns="http://www.w3.org/2000/svg" xmlns:xlink="http://www.w3.org/1999/xlink" x="0px" y="0px" viewBox="0 0 100 83.4"
	 style="enable-background:new 0 0 100 83.4;" xml:space="preserve">
<g transform="translate(0,-952.36218)">
	<path d="M26,957.1c-1.1,0-2,1.1-2,2v18H12c-1.1,0-2,1.1-2,2v43c0,5,4,9,9,9h62c5,0,9-4,9-9v-63c0-1-1-2-2-2L26,957.1L26,957.1z
		 M28,961.1h58v61c0,2.8-2.2,5-5,5H26.2c1-1.5,1.8-3.1,1.8-5V961.1z M36,967.1c-1.1,0-2,1.1-2,2v14c0,1,1,2,2,2h20c1,0,2-1,2-2v-14
		c0-1-1-2-2-2H36z M66,969.1c-1.1,0-2,0.9-2,2s0.9,2,2,2h12c1.1,0,2-0.9,2-2s-0.9-2-2-2H66z M38,971.1h16v10H38V971.1z M66,979.1
		c-1.1,0-2,0.9-2,2s0.9,2,2,2h12c1.1,0,2-0.9,2-2s-0.9-2-2-2H66z M14,981.1h10v41c0,2.8-2.2,5-5,5s-5-2.2-5-5V981.1z M36,991.1
		c-1.1,0-2,0.9-2,2s0.9,2,2,2h42c1.1,0,2-0.9,2-2s-0.9-2-2-2H36z M36,1002.1c-1.1,0-2,0.9-2,2s0.9,2,2,2h42c1.1,0,2-0.9,2-2
		s-0.9-2-2-2H36z M36,1013.1c-1.1,0-2,0.9-2,2s0.9,2,2,2h42c1.1,0,2-0.9,2-2s-0.9-2-2-2H36z"/>
</g>
</svg>
