<?xml version="1.0" encoding="utf-8"?>
<!-- Generator: Adobe Illustrator 22.0.0, SVG Export Plug-In . SVG Version: 6.00 Build 0)  -->
<svg version="1.1" id="Layer_1" xmlns="http://www.w3.org/2000/svg" xmlns:xlink="http://www.w3.org/1999/xlink" x="0px" y="0px"
	 viewBox="0 0 1000 600" style="enable-background:new 0 0 1000 600;" xml:space="preserve">
<style type="text/css">
	.st0{fill:#7BC7FF;}
	.st1{font-family:'MyriadPro-Regular';}
	.st2{font-size:60.6834px;}
	.st3{fill:#E96A6A;}
	.st4{fill:#848484;}
	.st5{fill:none;stroke:#E96A6A;stroke-width:3;stroke-miterlimit:10;}
	.st6{font-size:28.8px;}
	.st7{fill:none;stroke:#6AAA6A;stroke-width:3;stroke-miterlimit:10;}
	.st8{fill:#6AAA6A;}
	.st9{fill:#A0BF9E;}
	.st10{fill:none;stroke:#A0BF9E;stroke-width:3;stroke-miterlimit:10;}
	.st11{fill:#E4A19D;}
	.st12{fill:#BABABA;}
	.st13{fill:none;}
	.st14{fill:none;stroke:#E4A19D;stroke-width:3;stroke-miterlimit:10;}
	.st15{fill:none;stroke:#BABABA;stroke-width:3;stroke-miterlimit:10;}
	.st16{fill:#40B6FF;}
	.st17{font-size:21.6px;}
	.st18{fill:none;stroke:#0AA549;stroke-width:2;stroke-miterlimit:10;}
	.st19{fill:#0AA549;}
	.st20{font-size:16.8px;}
	.st21{fill:#AAAAAA;}
	.st22{fill:none;stroke:#EF1146;stroke-width:2;stroke-miterlimit:10;}
	.st23{fill:#EF1146;}
</style>
<g>
	<text transform="matrix(1 0 0 1 450.791 106.5288)" class="st0 st1 st2">$13.6</text>
	<text transform="matrix(1 0 0 1 587.891 106.5288)" class="st3 st1 st2">8</text>
	<text transform="matrix(1 0 0 1 766.791 106.5288)" class="st4 st1 st2">$13.70</text>
	<g>
		<g>
			<g>
				<line class="st5" x1="648.1" y1="93.2" x2="723.7" y2="93.2"/>
				<g>
					<polygon class="st3" points="744.9,93.2 715.1,105.4 722.1,93.2 715.1,81 					"/>
				</g>
			</g>
		</g>
		<text transform="matrix(1 0 0 1 671.6895 83.8052)" class="st3 st1 st6">.02</text>
	</g>
</g>
<g>
	<g>
		<text transform="matrix(1 0 0 1 450.791 327.5292)" class="st0 st1 st2">$  2.4</text>
	</g>
	<text transform="matrix(1 0 0 1 766.791 327.5292)" class="st4 st1 st2">$  2.45</text>
	<g>
		<g>
			<g>
				<line class="st7" x1="648.1" y1="314.3" x2="727" y2="314.3"/>
				<g>
					<polygon class="st8" points="718.6,325.4 723.3,314.3 718.6,303.2 744.9,314.3 					"/>
				</g>
			</g>
		</g>
		<text transform="matrix(1 0 0 1 671.6895 304.9553)" class="st8 st1 st6">.02</text>
	</g>
</g>
<g>
	<text transform="matrix(1 0 0 1 450.791 438.0288)" class="st0 st1 st2">$10.2</text>
	<text transform="matrix(1 0 0 1 586.891 438.0288)" class="st9 st1 st2">1</text>
	<text transform="matrix(1 0 0 1 766.791 438.0288)" class="st4 st1 st2">$10.20</text>
	<g>
		<g>
			<g>
				<line class="st10" x1="648.1" y1="425" x2="727" y2="425"/>
				<g>
					<polygon class="st9" points="718.6,436.1 723.3,425 718.6,413.9 744.9,425 					"/>
				</g>
			</g>
		</g>
		<text transform="matrix(1 0 0 1 671.6895 415.6046)" class="st9 st1 st6">.01</text>
	</g>
</g>
<g>
	<text transform="matrix(1 0 0 1 450.791 217.0292)" class="st0 st1 st2">$  1.9</text>
	<text transform="matrix(1 0 0 1 570.791 217.0292)" class="st11 st1 st2">9</text>
	<text transform="matrix(1 0 0 1 570.791 327.5291)" class="st8 st1 st2">9</text>
	<text transform="matrix(1 0 0 1 568.791 547.8999)" class="st12 st1 st2">9</text>
	<text transform="matrix(1 0 0 1 766.791 217.0292)" class="st4 st1 st2">$  2.00</text>
	<g>
		<g>
			<line class="st13" x1="648.1" y1="204.1" x2="744.9" y2="204.1"/>
			<g>
				<line class="st14" x1="648.1" y1="204.1" x2="727" y2="204.1"/>
				<g>
					<polygon class="st11" points="718.6,215.2 723.3,204.1 718.6,193 744.9,204.1 					"/>
				</g>
			</g>
		</g>
		<g>
			<text transform="matrix(1 0 0 1 671.6895 194.7555)" class="st11 st1 st6">.01</text>
		</g>
	</g>
</g>
<g>
	<text transform="matrix(1 0 0 1 450.791 548.5288)" class="st0 st1 st2">$  2.5</text>
	<text transform="matrix(1 0 0 1 766.791 548.5288)" class="st4 st1 st2">$  2.50</text>
	<g>
		<g>
			<g>
				<line class="st15" x1="648.1" y1="535.8" x2="727" y2="535.8"/>
				<g>
					<polygon class="st12" points="718.6,546.9 723.3,535.8 718.6,524.7 744.9,535.8 					"/>
				</g>
			</g>
		</g>
		<text transform="matrix(1 0 0 1 671.6895 526.4053)" class="st12 st1 st6">.00</text>
	</g>
</g>
<g>
	<rect x="191" y="284.8" class="st13" width="181.9" height="26.5"/>
	<text transform="matrix(1 0 0 1 190.9922 300.1064)" class="st16 st1 st17">Original Price</text>
</g>
<g>
	<g>
		<g>
			<g>
				<line class="st18" x1="103.9" y1="184.1" x2="103.9" y2="222.8"/>
				<g>
					<polygon class="st19" points="103.9,170 95.7,189.9 103.9,185.1 112,189.9 					"/>
				</g>
			</g>
		</g>
		<g>
			<rect x="190" y="180.6" class="st13" width="210.7" height="26.5"/>
			<text transform="matrix(1 0 0 1 189.9932 195.9839)" class="st8 st1 st17">Gain to customer</text>
			<rect x="190" y="205.8" class="st13" width="183.1" height="18.1"/>
			<text transform="matrix(1 0 0 1 189.9932 217.7755)" class="st8 st1 st20">Ending digit is 1, 2, 6, or 7</text>
			<rect x="190" y="307.2" class="st13" width="198.7" height="18.1"/>
			<text transform="matrix(1 0 0 1 189.9932 319.1758)" class="st21 st1 st20">No rounding if digit is 0 or 5</text>
		</g>
	</g>
	<g>
		<rect x="55.9" y="486.2" class="st4" width="96" height="46.8"/>
		<rect x="190" y="501.9" class="st13" width="181.9" height="21.4"/>
		<text transform="matrix(1 0 0 1 189.9932 517.2706)" class="st4 st1 st17">Rounded Price</text>
	</g>
	<rect x="55.9" y="277.8" class="st0" width="96" height="46.8"/>
	<g>
		<rect x="55.9" y="67" class="st4" width="96" height="46.8"/>
		<g>
			<rect x="190" y="79.4" class="st13" width="181.9" height="22"/>
			<text transform="matrix(1 0 0 1 189.9932 94.7203)" class="st4 st1 st17">Rounded Price</text>
		</g>
	</g>
	<g>
		<g>
			<g>
				<line class="st22" x1="103.9" y1="379.7" x2="103.9" y2="418.3"/>
				<g>
					<polygon class="st23" points="103.9,432.5 95.7,412.6 103.9,417.3 112,412.6 					"/>
				</g>
			</g>
		</g>
		<g>
			<rect x="190" y="415.5" class="st13" width="183.1" height="18.1"/>
			<text transform="matrix(1 0 0 1 189.9932 427.4756)" class="st3 st1 st20">Ending digit is 3, 4, 8, or 9</text>
			<g>
				<rect x="190" y="391.5" class="st13" width="119.5" height="21.7"/>
				<text transform="matrix(1 0 0 1 189.9932 406.8839)" class="st3 st1 st17">Gain to store</text>
			</g>
		</g>
	</g>
</g>
</svg>
