<?xml version="1.0" encoding="utf-8"?>
<!-- Generator: Adobe Illustrator 22.0.0, SVG Export Plug-In . SVG Version: 6.00 Build 0)  -->
<svg version="1.1" id="Layer_1" xmlns="http://www.w3.org/2000/svg" xmlns:xlink="http://www.w3.org/1999/xlink" x="0px" y="0px"
	 viewBox="0 0 78.7 69.2" style="enable-background:new 0 0 78.7 69.2;" xml:space="preserve">
<g>
	<path d="M54.6,6.4c-0.4-0.1-0.8-0.1-1.2-0.2C51.2,6,49,5.9,46.6,6.1L19.2,8.4c-7.9-0.1-13.5,4-13.5,9.9c0,2.2,0.8,5.9,2.3,8.1
		c0.1,0.1,0.1,0.3,0.1,0.3v30.1c0,0.7,0.5,1.4,1.2,1.5l27.2,4.7c0.6,0.1,1.2,0.2,1.8,0.2c0.4,0,0.7,0,1.1-0.1c1.1-0.1,3-0.5,5.7-1
		c4.8-0.9,12-2.2,22-3.7c1.8-0.3,3.3-2,3.3-3.9V29.3c0-0.1,0-0.2,0.1-0.3c1.4-1.4,2.5-4.6,2.5-7.4C73,16,67.3,9.1,54.6,6.4z
		 M46.8,9.1C49,8.9,51,9,53,9.2c0.4,0,0.7,0.1,1,0.2C63.3,11.3,70,16.5,70,21.7c0,2.1-0.9,4.5-1.7,5.3c-0.1,0.1-0.1,0.1-0.1,0.2
		l-27.5,4.5c0.8-1.6,1.4-3.8,1.4-5.7c0-6-5.5-12.2-13-15.4L46.8,9.1z M36.5,60l-25.5-4.4V26.8c0-0.7-0.3-1.5-0.6-2
		c-1.1-1.7-1.8-4.7-1.8-6.5c0-3.3,2.7-5.8,7-6.6l3.6-0.3c1.3,0,2.6,0.2,4,0.5c8.5,1.7,15.9,8.3,15.9,14.1c0,2.1-0.9,4.5-1.6,5.3
		c-0.6,0.6-0.9,1.4-1,2.2c0,0,0,0.1,0,0.1c0,0,0,0,0,0V60z M66.7,55.6c-10.1,1.5-17.3,2.8-22.1,3.7c-2.2,0.4-3.9,0.7-5,0.9V34.9
		l27.9-4.6v24.3C67.4,55.1,67,55.5,66.7,55.6z"/>
	<path d="M20.4,28.8c-0.1-0.1-0.2-0.1-0.3-0.1s-0.2-0.1-0.3-0.1c-0.5-0.1-1,0.1-1.4,0.4c-0.1,0.1-0.1,0.2-0.2,0.2
		c-0.1,0.1-0.1,0.2-0.1,0.3s-0.1,0.2-0.1,0.3c0,0.1,0,0.2,0,0.3c0,0.1,0,0.2,0,0.3c0,0.1,0,0.2,0.1,0.3s0.1,0.2,0.1,0.3
		c0,0.1,0.1,0.2,0.2,0.2c0.3,0.3,0.7,0.4,1.1,0.4c0.1,0,0.2,0,0.3,0c0.1,0,0.2,0,0.3-0.1s0.2-0.1,0.3-0.1c0.1,0,0.2-0.1,0.2-0.2
		c0.3-0.3,0.4-0.7,0.4-1.1c0-0.4-0.2-0.8-0.4-1.1C20.6,28.9,20.5,28.9,20.4,28.8z"/>
	<path d="M26.3,38.2c-0.3,0.3-0.4,0.7-0.4,1.1c0,0.4,0.2,0.8,0.4,1.1c0.3,0.3,0.7,0.4,1.1,0.4s0.8-0.2,1.1-0.4
		c0.3-0.3,0.4-0.7,0.4-1.1c0-0.4-0.2-0.8-0.4-1.1C27.8,37.6,26.8,37.6,26.3,38.2z"/>
	<path d="M21,48.4c0-0.1-0.1-0.2-0.1-0.2c0-0.1-0.1-0.2-0.2-0.2c-0.1-0.1-0.1-0.1-0.2-0.2c-0.1,0-0.2-0.1-0.3-0.1
		c-0.1,0-0.2-0.1-0.3-0.1c-0.5-0.1-1,0.1-1.4,0.4c-0.1,0.1-0.1,0.1-0.2,0.2c-0.1,0.1-0.1,0.2-0.1,0.2s-0.1,0.2-0.1,0.3
		c0,0.1,0,0.2,0,0.3c0,0.4,0.2,0.8,0.4,1.1c0.3,0.3,0.7,0.4,1.1,0.4c0.1,0,0.2,0,0.3,0c0.1,0,0.2,0,0.3-0.1c0.1,0,0.2-0.1,0.3-0.1
		c0.1,0,0.2-0.1,0.2-0.2c0.3-0.3,0.4-0.7,0.4-1.1c0-0.1,0-0.2,0-0.3C21.1,48.6,21,48.5,21,48.4z"/>
</g>
</svg>
