<?xml version="1.0" encoding="utf-8"?>
<!-- Generator: Adobe Illustrator 22.0.0, SVG Export Plug-In . SVG Version: 6.00 Build 0)  -->
<svg version="1.1" id="Layer_1" xmlns="http://www.w3.org/2000/svg" xmlns:xlink="http://www.w3.org/1999/xlink" x="0px" y="0px"
	 viewBox="0 0 59.7 58.1" style="enable-background:new 0 0 59.7 58.1;" xml:space="preserve">
<g>
	<path d="M13.8,45h32V13h-32V45z M15.8,15h28v28h-28V15z M53.8,12c0.6,0,1-0.4,1-1V5c0-0.6-0.4-1-1-1h-6c-0.6,0-1,0.4-1,1
		c0,1.7-1.3,3-3,3s-3-1.3-3-3c0-0.6-0.4-1-1-1h-6c-0.6,0-1,0.4-1,1c0,1.7-1.3,3-3,3s-3-1.3-3-3c0-0.6-0.4-1-1-1h-6c-0.6,0-1,0.4-1,1
		c0,1.7-1.3,3-3,3s-3-1.3-3-3c0-0.6-0.4-1-1-1h-6c-0.6,0-1,0.4-1,1v6c0,0.6,0.4,1,1,1c1.7,0,3,1.3,3,3s-1.3,3-3,3c-0.6,0-1,0.4-1,1
		v6c0,0.6,0.4,1,1,1c1.7,0,3,1.3,3,3s-1.3,3-3,3c-0.6,0-1,0.4-1,1v6c0,0.6,0.4,1,1,1c1.7,0,3,1.3,3,3c0,1.7-1.3,3-3,3
		c-0.6,0-1,0.4-1,1v6c0,0.6,0.4,1,1,1h6c0.6,0,1-0.4,1-1c0-1.7,1.3-3,3-3s3,1.3,3,3c0,0.6,0.4,1,1,1h6c0.6,0,1-0.4,1-1
		c0-1.7,1.3-3,3-3s3,1.3,3,3c0,0.6,0.4,1,1,1h6c0.6,0,1-0.4,1-1c0-1.7,1.3-3,3-3c1.7,0,3,1.3,3,3c0,0.6,0.4,1,1,1h6c0.6,0,1-0.4,1-1
		v-6c0-0.6-0.4-1-1-1c-1.7,0-3-1.3-3-3s1.3-3,3-3c0.6,0,1-0.4,1-1v-6c0-0.6-0.4-1-1-1c-1.7,0-3-1.3-3-3s1.3-3,3-3c0.6,0,1-0.4,1-1
		v-6c0-0.6-0.4-1-1-1c-1.7,0-3-1.3-3-3S52.1,12,53.8,12z M52.8,19.9v4.2c-2.3,0.5-4,2.5-4,4.9s1.7,4.4,4,4.9v4.2
		c-2.3,0.5-4,2.5-4,4.9s1.7,4.4,4,4.9V52h-4.1c-0.5-2.3-2.5-4-4.9-4s-4.4,1.7-4.9,4h-4.2c-0.5-2.3-2.5-4-4.9-4s-4.4,1.7-4.9,4h-4.2
		c-0.5-2.3-2.5-4-4.9-4s-4.4,1.7-4.9,4H6.8v-4.1c2.3-0.5,4-2.5,4-4.9s-1.7-4.4-4-4.9v-4.2c2.3-0.5,4-2.5,4-4.9s-1.7-4.4-4-4.9v-4.2
		c2.3-0.5,4-2.5,4-4.9s-1.7-4.4-4-4.9V6h4.1c0.5,2.3,2.5,4,4.9,4s4.4-1.7,4.9-4h4.2c0.5,2.3,2.5,4,4.9,4s4.4-1.7,4.9-4h4.2
		c0.5,2.3,2.5,4,4.9,4s4.4-1.7,4.9-4h4.1v4.1c-2.3,0.5-4,2.5-4,4.9S50.5,19.4,52.8,19.9z"/>
</g>
</svg>
